<?xml version="1.0" encoding="UTF-8"?>
<svg width="669px" height="106px" viewBox="0 0 669 106" version="1.1" xmlns="http://www.w3.org/2000/svg" xmlns:xlink="http://www.w3.org/1999/xlink">
    <!-- Generator: Sketch 53 (72520) - https://sketchapp.com -->
    <title>mbgs logo</title>
    <desc>Created with Sketch.</desc>
    <defs>
        <path d="M56.1445312,65.7421875 L52.9101562,117.351562 L36.8789062,118.054688 L37.0195312,90.84375 L29.7773438,112.78125 L23.5898438,112.78125 L18.0351562,93.1640625 L17.9648438,115.945312 L1.72265625,116.4375 L2.42578125,67.8515625 L20.4960938,67.1484375 L27.6679688,90.421875 L37.2304688,65.7421875 L56.1445312,65.7421875 Z M102.058594,69.3984375 L85.5351562,96.3984375 L86.0273438,116.296875 L67.9570312,116.296875 L68.3789062,96.5390625 L55.5117188,70.453125 L73.4414062,68.203125 L79.0664062,83.390625 L85.1835938,68.203125 L102.058594,69.3984375 Z" id="path-1"></path>
        <path d="M137.714844,52.484375 C137.714844,54.4296972 137.357425,56.1054617 136.642578,57.5117188 C135.927731,58.9179758 134.972662,60.1132763 133.777344,61.0976562 C132.582025,62.0820362 131.205086,62.8847625 129.646484,63.5058594 C128.087883,64.1269562 126.464852,64.6132795 124.777344,64.9648438 C123.089835,65.316408 121.396493,65.5507807 119.697266,65.6679688 C117.998038,65.7851568 116.410164,65.84375 114.933594,65.84375 C113.480461,65.84375 111.974617,65.7910162 110.416016,65.6855469 C108.857414,65.5800776 107.304695,65.3984388 105.757812,65.140625 C104.21093,64.8828112 102.687507,64.5371115 101.1875,64.1035156 C99.6874925,63.6699197 98.2695379,63.1250033 96.9335938,62.46875 L96.8632812,17.1875 C98.1757878,16.6484348 99.5703051,16.1621115 101.046875,15.7285156 C102.523445,15.2949197 104.029289,14.9316421 105.564453,14.6386719 C107.099617,14.3457017 108.628899,14.1230476 110.152344,13.9707031 C111.675789,13.8183586 113.152337,13.7421875 114.582031,13.7421875 C116.246102,13.7421875 117.927726,13.8476552 119.626953,14.0585938 C121.32618,14.2695323 122.96093,14.6210913 124.53125,15.1132812 C126.10157,15.6054712 127.566399,16.2441367 128.925781,17.0292969 C130.285163,17.8144571 131.474604,18.7812443 132.494141,19.9296875 C133.513677,21.0781307 134.310544,22.4140549 134.884766,23.9375 C135.458987,25.4609451 135.746094,27.21874 135.746094,29.2109375 C135.746094,30.5234441 135.558596,31.7539005 135.183594,32.9023438 C134.808592,34.050787 134.269535,35.0820267 133.566406,35.9960938 C132.863278,36.9101608 132.007818,37.6894499 131,38.3339844 C129.992182,38.9785188 128.855475,39.4531235 127.589844,39.7578125 C129.113289,40.156252 130.501947,40.7421836 131.755859,41.515625 C133.009772,42.2890664 134.076167,43.226557 134.955078,44.328125 C135.833989,45.429693 136.513669,46.6718681 136.994141,48.0546875 C137.474612,49.4375069 137.714844,50.9140546 137.714844,52.484375 Z M119.855469,32.4453125 C119.855469,31.7656216 119.714845,31.1855493 119.433594,30.7050781 C119.152342,30.224607 118.806643,29.8320328 118.396484,29.5273438 C117.986326,29.2226547 117.541018,29.0000007 117.060547,28.859375 C116.580076,28.7187493 116.152346,28.6484375 115.777344,28.6484375 C115.308591,28.6484375 114.851565,28.7187493 114.40625,28.859375 C113.960935,29.0000007 113.527346,29.1640616 113.105469,29.3515625 L112.894531,37.15625 C113.433596,37.15625 114.101559,37.1093755 114.898438,37.015625 C115.695316,36.9218745 116.462887,36.7167985 117.201172,36.4003906 C117.939457,36.0839828 118.566404,35.6152375 119.082031,34.9941406 C119.597659,34.3730438 119.855469,33.5234429 119.855469,32.4453125 Z M114.863281,43.90625 C114.18359,43.90625 113.527347,43.9765618 112.894531,44.1171875 L112.753906,52.1328125 C113.105471,52.2031254 113.45117,52.2675778 113.791016,52.3261719 C114.130861,52.3847659 114.464842,52.4140625 114.792969,52.4140625 C115.285159,52.4140625 115.824216,52.3613287 116.410156,52.2558594 C116.996097,52.1503901 117.546872,51.9394547 118.0625,51.6230469 C118.578128,51.306639 119.005858,50.8789089 119.345703,50.3398438 C119.685549,49.8007786 119.855469,49.085942 119.855469,48.1953125 C119.855469,47.304683 119.685549,46.5781278 119.345703,46.015625 C119.005858,45.4531222 118.589846,45.0136735 118.097656,44.6972656 C117.605466,44.3808578 117.066409,44.1699224 116.480469,44.0644531 C115.894528,43.9589838 115.355471,43.90625 114.863281,43.90625 Z M182.222656,38.0703125 C182.222656,40.2031357 181.976565,42.2597557 181.484375,44.2402344 C180.992185,46.220713 180.283208,48.0781163 179.357422,49.8125 C178.431636,51.5468837 177.306647,53.1347584 175.982422,54.5761719 C174.658197,56.0175853 173.16993,57.2539011 171.517578,58.2851562 C169.865226,59.3164114 168.066416,60.1191378 166.121094,60.6933594 C164.175772,61.267581 162.113292,61.5546875 159.933594,61.5546875 C157.824208,61.5546875 155.814463,61.2851589 153.904297,60.7460938 C151.994131,60.2070286 150.20704,59.4511767 148.542969,58.4785156 C146.878898,57.5058545 145.373054,56.3339912 144.025391,54.9628906 C142.677728,53.59179 141.529302,52.0683678 140.580078,50.3925781 C139.630855,48.7167885 138.892581,46.9179784 138.365234,44.9960938 C137.837888,43.0742091 137.574219,41.0703229 137.574219,38.984375 C137.574219,36.9453023 137.82031,34.9472754 138.3125,32.9902344 C138.80469,31.0331933 139.513667,29.1875087 140.439453,27.453125 C141.365239,25.7187413 142.484368,24.1250073 143.796875,22.671875 C145.109382,21.2187427 146.58007,19.964849 148.208984,18.9101562 C149.837899,17.8554635 151.601553,17.0351592 153.5,16.4492188 C155.398447,15.8632783 157.402333,15.5703125 159.511719,15.5703125 C162.910173,15.5703125 166.009752,16.097651 168.810547,17.1523438 C171.611342,18.2070365 174.001943,19.7128808 175.982422,21.6699219 C177.962901,23.6269629 179.498041,25.9941267 180.587891,28.7714844 C181.67774,31.548842 182.222656,34.6484204 182.222656,38.0703125 Z M166.613281,38.984375 C166.613281,37.9765575 166.466798,36.9980516 166.173828,36.0488281 C165.880858,35.0996046 165.453128,34.2558631 164.890625,33.5175781 C164.328122,32.7792932 163.630864,32.1816429 162.798828,31.7246094 C161.966793,31.2675758 161.011724,31.0390625 159.933594,31.0390625 C158.832026,31.0390625 157.847661,31.2382793 156.980469,31.6367188 C156.113277,32.0351582 155.369144,32.5800747 154.748047,33.2714844 C154.12695,33.9628941 153.652345,34.7714797 153.324219,35.6972656 C152.996092,36.6230515 152.832031,37.6015573 152.832031,38.6328125 C152.832031,39.6171924 152.972655,40.6015576 153.253906,41.5859375 C153.535158,42.5703174 153.957028,43.4609335 154.519531,44.2578125 C155.082034,45.0546915 155.779293,45.6992163 156.611328,46.1914062 C157.443364,46.6835962 158.410151,46.9296875 159.511719,46.9296875 C160.613287,46.9296875 161.603511,46.7128928 162.482422,46.2792969 C163.361333,45.845701 164.105466,45.2597693 164.714844,44.5214844 C165.324222,43.7831994 165.792967,42.9335986 166.121094,41.9726562 C166.44922,41.0117139 166.613281,40.0156302 166.613281,38.984375 Z M226.941406,61.9765625 L209.503906,64.2265625 L207.394531,56.28125 L199.378906,56.28125 L197.621094,64.2265625 L179.691406,62.46875 L193.683594,15.640625 L213.230469,14.65625 L226.941406,61.9765625 Z M206.128906,45.5234375 L203.457031,33.2890625 L200.855469,45.5234375 L206.128906,45.5234375 Z M268.882812,31.109375 C268.882812,32.9375091 268.724611,34.5956957 268.408203,36.0839844 C268.091795,37.5722731 267.593753,38.9374938 266.914062,40.1796875 C266.234372,41.4218812 265.355474,42.5703072 264.277344,43.625 C263.199213,44.6796928 261.898445,45.6874952 260.375,46.6484375 L268.742188,61.5546875 L252.921875,64.6484375 L247.507812,49.671875 L243.148438,49.8125 L242.515625,64.4375 L227.398438,64.4375 C227.515626,59.0937233 227.626953,53.773464 227.732422,48.4765625 C227.837891,43.179661 227.960937,37.8594017 228.101562,32.515625 C228.148438,29.820299 228.195312,27.1484507 228.242188,24.5 C228.289063,21.8515493 228.382812,19.179701 228.523438,16.484375 C230.164071,15.874997 231.781242,15.3710957 233.375,14.9726562 C234.968758,14.5742168 236.568351,14.263673 238.173828,14.0410156 C239.779305,13.8183583 241.408195,13.666016 243.060547,13.5839844 C244.712899,13.5019527 246.406241,13.4609375 248.140625,13.4609375 C250.812513,13.4609375 253.396472,13.8300744 255.892578,14.5683594 C258.388684,15.3066443 260.597647,16.4140551 262.519531,17.890625 C264.441416,19.3671949 265.982416,21.2070202 267.142578,23.4101562 C268.30274,25.6132923 268.882812,28.1796729 268.882812,31.109375 Z M253.132812,32.234375 C253.132812,31.2499951 252.998048,30.3476604 252.728516,29.5273438 C252.458983,28.7070271 252.06055,27.9980499 251.533203,27.4003906 C251.005857,26.8027314 250.349613,26.3339861 249.564453,25.9941406 C248.779293,25.6542952 247.85938,25.484375 246.804688,25.484375 C246.335935,25.484375 245.878908,25.5136716 245.433594,25.5722656 C244.988279,25.6308597 244.55469,25.7187494 244.132812,25.8359375 L243.570312,38.9140625 L244.414062,38.9140625 C245.42188,38.9140625 246.44726,38.7851575 247.490234,38.5273438 C248.533208,38.26953 249.470699,37.8710964 250.302734,37.3320312 C251.13477,36.7929661 251.81445,36.1015667 252.341797,35.2578125 C252.869143,34.4140583 253.132812,33.4062559 253.132812,32.234375 Z M311.140625,37.0859375 C311.140625,40.3672039 310.718754,43.3085807 309.875,45.9101562 C309.031246,48.5117318 307.853523,50.8144431 306.341797,52.8183594 C304.830071,54.8222756 303.03126,56.5273367 300.945312,57.9335938 C298.859365,59.3398508 296.574231,60.4941361 294.089844,61.3964844 C291.605456,62.2988326 288.962905,62.9609354 286.162109,63.3828125 C283.361314,63.8046896 280.48439,64.015625 277.53125,64.015625 C276.429682,64.015625 275.351568,63.9863284 274.296875,63.9277344 C273.242182,63.8691403 272.164068,63.7812506 271.0625,63.6640625 L272.046875,17.890625 C274.625013,17.0703084 277.279283,16.4902361 280.009766,16.1503906 C282.740248,15.8105452 285.453112,15.640625 288.148438,15.640625 C291.500017,15.640625 294.582017,16.1093703 297.394531,17.046875 C300.207045,17.9843797 302.632802,19.361319 304.671875,21.1777344 C306.710948,22.9941497 308.298822,25.2324086 309.435547,27.8925781 C310.572271,30.5527477 311.140625,33.6171702 311.140625,37.0859375 Z M287.234375,50.5859375 C288.640632,50.3749989 289.923822,49.9472688 291.083984,49.3027344 C292.244146,48.6581999 293.24609,47.8613329 294.089844,46.9121094 C294.933598,45.9628859 295.583982,44.8847717 296.041016,43.6777344 C296.498049,42.4706971 296.726562,41.1875068 296.726562,39.828125 C296.726562,38.4921808 296.585939,37.2441464 296.304688,36.0839844 C296.023436,34.9238223 295.566409,33.9160199 294.933594,33.0605469 C294.300778,32.2050738 293.468755,31.5253931 292.4375,31.0214844 C291.406245,30.5175756 290.140632,30.2421877 288.640625,30.1953125 L287.234375,50.5859375 Z" id="path-2"></path>
        <path d="M153.226562,109.828125 C152.124994,111.210944 150.765633,112.417964 149.148438,113.449219 C147.531242,114.480474 145.796884,115.335934 143.945312,116.015625 C142.093741,116.695316 140.195322,117.205076 138.25,117.544922 C136.304678,117.884767 134.453134,118.054688 132.695312,118.054688 C129.296858,118.054688 126.167983,117.445319 123.308594,116.226562 C120.449204,115.007806 117.982432,113.326183 115.908203,111.181641 C113.833974,109.037099 112.210943,106.511733 111.039062,103.605469 C109.867182,100.699204 109.28125,97.5703293 109.28125,94.21875 C109.28125,91.6640497 109.574216,89.1621216 110.160156,86.7128906 C110.746097,84.2636596 111.583979,81.955089 112.673828,79.7871094 C113.763677,77.6191298 115.093742,75.6269622 116.664062,73.8105469 C118.234383,71.9941315 120.015615,70.4296941 122.007812,69.1171875 C124.00001,67.8046809 126.179676,66.7851599 128.546875,66.0585938 C130.914074,65.3320276 133.445299,64.96875 136.140625,64.96875 C137.148443,64.96875 138.226557,65.0097652 139.375,65.0917969 C140.523443,65.1738285 141.66601,65.3144521 142.802734,65.5136719 C143.939459,65.7128916 145.04687,65.9882795 146.125,66.3398438 C147.20313,66.691408 148.187496,67.1249974 149.078125,67.640625 L148.09375,81.0703125 C146.781243,80.5781225 145.427741,80.2441415 144.033203,80.0683594 C142.638665,79.8925772 141.273444,79.8046875 139.9375,79.8046875 C138.062491,79.8046875 136.310555,80.091794 134.681641,80.6660156 C133.052726,81.2402372 131.634772,82.0664009 130.427734,83.1445312 C129.220697,84.2226616 128.265629,85.5351485 127.5625,87.0820312 C126.859371,88.628914 126.507812,90.3749903 126.507812,92.3203125 C126.507812,93.5390686 126.671873,94.7167912 127,95.8535156 C127.328127,96.9902401 127.826169,97.9980425 128.494141,98.8769531 C129.162113,99.7558638 129.994136,100.464841 130.990234,101.003906 C131.986333,101.542971 133.140618,101.8125 134.453125,101.8125 C135.343754,101.8125 136.263667,101.695314 137.212891,101.460938 C138.162114,101.226561 138.976559,100.828128 139.65625,100.265625 L139.796875,97.5234375 L131.359375,97.3828125 L131.78125,86.8359375 C135.273455,86.7187494 138.765608,86.619141 142.257812,86.5371094 C145.750017,86.4550777 149.265607,86.3437507 152.804688,86.203125 L153.226562,109.828125 Z M200.230469,113.976562 L182.792969,116.226562 L180.683594,108.28125 L172.667969,108.28125 L170.910156,116.226562 L152.980469,114.46875 L166.972656,67.640625 L186.519531,66.65625 L200.230469,113.976562 Z M179.417969,97.5234375 L176.746094,85.2890625 L174.144531,97.5234375 L179.417969,97.5234375 Z M262.421875,93.1640625 C262.421875,96.5156418 262.316407,99.8554521 262.105469,103.183594 C261.89453,106.511735 261.648439,109.851546 261.367188,113.203125 L243.296875,114.046875 C243.83594,109.96873 244.322263,105.884786 244.755859,101.794922 C245.189455,97.7050577 245.40625,93.6093955 245.40625,89.5078125 C245.40625,89.2499987 245.394531,88.7988313 245.371094,88.1542969 C245.347656,87.5097624 245.306641,86.7773479 245.248047,85.9570312 C245.189453,85.1367146 245.107422,84.2871138 245.001953,83.4082031 C244.896484,82.5292925 244.75586,81.7207068 244.580078,80.9824219 C244.404296,80.2441369 244.187501,79.6406273 243.929688,79.171875 C243.671874,78.7031227 243.367189,78.46875 243.015625,78.46875 C242.195308,78.46875 241.550784,78.7792938 241.082031,79.4003906 C240.613279,80.0214875 240.267579,80.7656207 240.044922,81.6328125 C239.822265,82.5000043 239.6875,83.3847611 239.640625,84.2871094 C239.59375,85.1894576 239.570312,85.9218722 239.570312,86.484375 C239.570312,87.4687549 239.59375,88.4531201 239.640625,89.4375 C239.6875,90.4218799 239.710938,91.4296823 239.710938,92.4609375 C239.710938,96.0937682 239.623048,99.7148257 239.447266,103.324219 C239.271483,106.933612 239.054689,110.554669 238.796875,114.1875 L222.132812,114.820312 C222.671878,110.742167 223.146482,106.669942 223.556641,102.603516 C223.966799,98.537089 224.171875,94.4531455 224.171875,90.3515625 C224.171875,90.0937487 224.160156,89.6250034 224.136719,88.9453125 C224.113281,88.2656216 224.072266,87.5039105 224.013672,86.6601562 C223.955078,85.816402 223.867188,84.9375046 223.75,84.0234375 C223.632812,83.1093704 223.486329,82.2714882 223.310547,81.5097656 C223.134765,80.7480431 222.91797,80.1210962 222.660156,79.6289062 C222.402342,79.1367163 222.085939,78.890625 221.710938,78.890625 C221.124997,78.890625 220.632814,79.1191383 220.234375,79.5761719 C219.835936,80.0332054 219.513673,80.6249964 219.267578,81.3515625 C219.021483,82.0781286 218.833985,82.880855 218.705078,83.7597656 C218.576171,84.6386763 218.482422,85.4999958 218.423828,86.34375 C218.365234,87.1875042 218.330078,87.9667933 218.318359,88.6816406 C218.306641,89.3964879 218.289063,89.9296857 218.265625,90.28125 L217.492188,115.945312 L199.773438,115.945312 C200.148439,111.984355 200.529295,108.011739 200.916016,104.027344 C201.302736,100.042949 201.642577,96.064473 201.935547,92.0917969 C202.228517,88.1191208 202.468749,84.1406449 202.65625,80.15625 C202.843751,76.1718551 202.9375,72.1875199 202.9375,68.203125 L219.671875,67.5 L219.601562,71.578125 C220.11719,70.9218717 220.703122,70.259769 221.359375,69.5917969 C222.015628,68.9238248 222.712887,68.3261745 223.451172,67.7988281 C224.189457,67.2714817 224.974605,66.8437516 225.806641,66.515625 C226.638676,66.1874984 227.499996,66.0234375 228.390625,66.0234375 C229.539068,66.0234375 230.570308,66.1113272 231.484375,66.2871094 C232.398442,66.4628915 233.224606,66.7617166 233.962891,67.1835938 C234.701176,67.6054709 235.35156,68.1855432 235.914062,68.9238281 C236.476565,69.6621131 236.968748,70.5937444 237.390625,71.71875 C238.140629,70.8984334 238.896481,70.1367223 239.658203,69.4335938 C240.419926,68.7304652 241.222652,68.1269556 242.066406,67.6230469 C242.91016,67.1191381 243.824214,66.7265639 244.808594,66.4453125 C245.792974,66.1640611 246.882807,66.0234375 248.078125,66.0234375 C250.351574,66.0234375 252.285148,66.4628862 253.878906,67.3417969 C255.472664,68.2207075 256.802729,69.3867115 257.869141,70.8398438 C258.935552,72.292976 259.767575,73.9570219 260.365234,75.8320312 C260.962894,77.7070406 261.414061,79.6523337 261.71875,81.6679688 C262.023439,83.6836038 262.216796,85.68749 262.298828,87.6796875 C262.38086,89.671885 262.421875,91.4999917 262.421875,93.1640625 Z M304.855469,88.59375 C304.855469,90.6328227 304.714845,92.6718648 304.433594,94.7109375 C300.425761,94.9687513 296.441426,95.3847628 292.480469,95.9589844 C288.519511,96.533206 284.558614,97.1015597 280.597656,97.6640625 C281.207034,99.3515709 282.162103,100.699214 283.462891,101.707031 C284.763678,102.714849 286.316397,103.21875 288.121094,103.21875 C289.058598,103.21875 290.083979,103.042971 291.197266,102.691406 C292.310552,102.339842 293.417963,101.900393 294.519531,101.373047 C295.621099,100.8457 296.675776,100.277347 297.683594,99.6679688 C298.691411,99.0585907 299.55859,98.507815 300.285156,98.015625 L298.597656,113.976562 C297.683589,114.679691 296.693365,115.277341 295.626953,115.769531 C294.560542,116.261721 293.453131,116.660155 292.304688,116.964844 C291.156244,117.269533 289.9961,117.492187 288.824219,117.632812 C287.652338,117.773438 286.503912,117.84375 285.378906,117.84375 C283.058582,117.84375 280.93751,117.527347 279.015625,116.894531 C277.09374,116.261716 275.353523,115.376959 273.794922,114.240234 C272.23632,113.10351 270.8711,111.761726 269.699219,110.214844 C268.527338,108.667961 267.554691,106.980478 266.78125,105.152344 C266.007809,103.32421 265.421877,101.390635 265.023438,99.3515625 C264.624998,97.3124898 264.425781,95.2500104 264.425781,93.1640625 C264.425781,90.9843641 264.624998,88.8046984 265.023438,86.625 C265.421877,84.4453016 266.025387,82.3476663 266.833984,80.3320312 C267.642582,78.3163962 268.662103,76.4472742 269.892578,74.7246094 C271.123053,73.0019445 272.558586,71.4961002 274.199219,70.2070312 C275.839852,68.9179623 277.697255,67.9101599 279.771484,67.1835938 C281.845713,66.4570276 284.136706,66.09375 286.644531,66.09375 C288.730479,66.09375 290.634757,66.3808565 292.357422,66.9550781 C294.080087,67.5292997 295.615228,68.3261668 296.962891,69.3457031 C298.310554,70.3652395 299.482417,71.578118 300.478516,72.984375 C301.474614,74.390632 302.294919,75.9316322 302.939453,77.6074219 C303.583988,79.2832115 304.064452,81.0527251 304.380859,82.9160156 C304.697267,84.7793062 304.855469,86.6718654 304.855469,88.59375 Z M290.792969,86.765625 C290.792969,86.1093717 290.722657,85.4355503 290.582031,84.7441406 C290.441406,84.0527309 290.212892,83.4257841 289.896484,82.8632812 C289.580077,82.3007784 289.164065,81.8378924 288.648438,81.4746094 C288.13281,81.1113263 287.488285,80.9296875 286.714844,80.9296875 C285.777339,80.9296875 284.951175,81.1816381 284.236328,81.6855469 C283.521481,82.1894556 282.906253,82.8222618 282.390625,83.5839844 C281.874997,84.3457069 281.453127,85.1718705 281.125,86.0625 C280.796873,86.9531295 280.550782,87.7734337 280.386719,88.5234375 L290.792969,87.5390625 L290.792969,86.765625 Z" id="path-3"></path>
        <path d="M381.438828,85.3523146 C380.677935,91.5492971 378.938579,96.8340166 376.220708,101.206632 C373.502837,105.579247 370.089238,109.074338 365.979809,111.69201 C361.870379,114.309682 357.222169,116.080603 352.035038,117.004827 C346.847907,117.929051 341.382099,118.038484 335.637451,117.33313 C333.421012,117.060985 331.025851,116.468451 328.451896,115.555509 C325.87794,114.642567 323.288149,113.578466 320.682445,112.363176 C318.07674,111.147886 315.581179,109.877261 313.195687,108.551263 C310.810195,107.225265 308.700501,105.990539 306.866542,104.84705 L313.284271,77.2594781 C316.845862,80.0384714 320.893837,82.314695 325.428319,84.0882172 C329.962801,85.8617394 334.491646,87.0261815 339.014991,87.5815785 C339.874427,87.6871039 340.918946,87.7809187 342.14858,87.8630257 C343.378214,87.9451327 344.56795,87.8845977 345.717825,87.6814191 C346.867699,87.4782405 347.86876,87.084615 348.721038,86.5005307 C349.573316,85.9164464 350.077204,84.9911499 350.232715,83.7246133 C350.33824,82.8651778 350.157094,82.0968219 349.689271,81.4195227 C349.221449,80.7422236 348.581433,80.1585778 347.769207,79.6685681 C346.95698,79.1785584 346.020575,78.7651368 344.959965,78.428291 C343.899356,78.0914453 342.854436,77.8139224 341.825174,77.5957142 C340.795913,77.3775061 339.828962,77.2128647 338.924293,77.1017854 L336.753098,76.8351962 C332.863022,76.3575548 329.406866,75.2444717 326.384527,73.4959134 C323.362188,71.7473551 320.85748,69.5228768 318.870328,66.8224118 C316.883176,64.1219468 315.460462,61.0316759 314.602142,57.5515062 C313.743822,54.0713366 313.553485,50.3862687 314.031127,46.4961921 C314.686495,41.1586451 316.348097,36.5071843 319.015982,32.5416704 C321.683867,28.5761564 324.997682,25.3328229 328.957526,22.8115725 C332.91737,20.2903221 337.323943,18.5241675 342.177377,17.5130556 C347.030812,16.5019437 351.945295,16.3018591 356.920974,16.9127957 C359.137413,17.1849402 361.411949,17.5445688 363.744649,17.9916922 C366.07735,18.4388157 368.383434,19.0089341 370.662971,19.7020646 C372.942508,20.395195 375.151585,21.1944547 377.290268,22.0998674 C379.428951,23.0052802 381.435082,24.0551094 383.308721,25.2493865 L377.348077,52.4798447 C374.399943,51.0618054 371.284021,49.7953602 368.000215,48.6804711 C364.71641,47.5655819 361.468768,46.8109827 358.257194,46.4166509 C357.669159,46.3444493 356.910121,46.2627299 355.980059,46.1714903 C355.049996,46.0802506 354.069161,46.0286912 353.037523,46.0168105 C352.005885,46.0049299 350.956013,46.0482018 349.887874,46.1466278 C348.819735,46.2450538 347.854974,46.4365203 346.993563,46.7210332 C346.132152,47.005546 345.413796,47.4338834 344.838472,48.006058 C344.263149,48.5782326 343.945346,49.2968039 343.885054,50.1617934 C343.8081,51.1624833 344.082689,52.0111845 344.708829,52.7079226 C345.334969,53.4046607 346.181308,53.9906825 347.247873,54.4660056 C348.314438,54.9413287 349.506565,55.3287557 350.82429,55.6282981 C352.142014,55.9278406 353.455354,56.1694491 354.764347,56.3531309 C356.07334,56.5368127 357.294625,56.6867677 358.428238,56.8030002 C359.561851,56.9192327 360.484957,57.0670119 361.197585,57.2463423 C364.788491,57.9168271 367.950834,59.085664 370.68471,60.752888 C373.418585,62.4201121 375.658639,64.4628721 377.404937,66.8812293 C379.151235,69.2995865 380.371189,72.0779947 381.064836,75.2165373 C381.758483,78.35508 381.883146,81.7336386 381.438828,85.3523146 Z M462.935547,114.265625 L428.755859,115.90625 L428.482422,87.0585938 L412.759766,87.0585938 L411.802734,117 L381.177734,117 L383.775391,20.8867188 L416.314453,22.390625 L414.263672,71.4726563 L429.439453,71.4726563 L429.576172,20.0664063 L460.748047,20.8867188 L462.935547,114.265625 Z M539.115906,51.9279848 C540.075093,55.775075 540.768954,59.6882573 541.197508,63.6676492 C533.757262,66.0393621 526.435766,68.6984911 519.232799,71.645116 C512.029831,74.5917409 504.824216,77.5272669 497.615736,80.451782 C499.559251,83.3489271 501.995102,85.4422383 504.923361,86.7317783 C507.851621,88.0213183 511.018151,88.2416171 514.423047,87.3926812 C516.191824,86.9516755 518.043707,86.1376921 519.978753,84.9507065 C521.913799,83.7637208 523.796417,82.4136889 525.626664,80.9005701 C527.456912,79.3874513 529.179401,77.8190224 530.794182,76.1952362 C532.408964,74.57145 533.785971,73.1243849 534.925246,71.8539976 L539.249547,102.761083 C537.855743,104.517647 536.268637,106.11103 534.488181,107.541282 C532.707725,108.971534 530.805813,110.244183 528.782388,111.359268 C526.758963,112.474352 524.674872,113.440167 522.530051,114.25674 C520.385231,115.073314 518.251586,115.746194 516.129053,116.275401 C511.75133,117.36689 507.600695,117.767697 503.677023,117.477834 C499.753351,117.187971 496.053915,116.337317 492.578604,114.925847 C489.103292,113.514377 485.89637,111.625057 482.957739,109.257832 C480.019108,106.890607 477.390231,104.164393 475.071029,101.079107 C472.751827,97.9938212 470.736797,94.6213976 469.02588,90.9617348 C467.314962,87.302072 465.968905,83.5045331 464.987667,79.569004 C463.962329,75.4565973 463.312866,71.2505399 463.039258,66.9507058 C462.76565,62.6508716 462.917548,58.4093991 463.494956,54.226161 C464.072364,50.0429228 465.116638,46.0368899 466.62781,42.2079421 C468.138982,38.3789943 470.139027,34.8626589 472.628004,31.6588305 C475.116981,28.455002 478.147244,25.6798658 481.718884,23.3333386 C485.290524,20.9868113 489.442021,19.223729 494.1735,18.0440389 C498.109029,17.0628013 501.836859,16.7087018 505.357103,16.9817299 C508.877347,17.254758 512.148525,18.03606 515.170736,19.3256595 C518.192947,20.6152589 520.974428,22.3523312 523.515262,24.5369283 C526.056096,26.7215254 528.328645,29.243035 530.332977,32.1015327 C532.337309,34.9600303 534.076179,38.072535 535.54964,41.4391401 C537.023101,44.8057451 538.211844,48.3019917 539.115906,51.9279848 Z M515.525012,54.1871516 C515.216308,52.9490076 514.766684,51.7107931 514.176126,50.4724709 C513.585568,49.2341486 512.859517,48.1587902 511.997951,47.2463633 C511.136385,46.3339365 510.133759,45.6563092 508.990042,45.2134612 C507.846325,44.7706132 506.544865,44.7311046 505.085624,45.0949343 C503.316847,45.5359399 501.876654,46.3999221 500.765002,47.6869066 C499.65335,48.9738911 498.790282,50.4572033 498.175772,52.1368878 C497.561261,53.8165723 497.153954,55.5737333 496.953837,57.4084236 C496.753721,59.2431138 496.675298,60.9065328 496.718566,62.3987304 L515.88884,55.6463854 L515.525012,54.1871516 Z M602.714423,87.8164028 L597.733105,117.893753 L540,118.379397 L548.991602,21.1525923 L584.451887,23.6322169 L575.028124,85.8803882 L602.714423,87.8164028 Z M669.214844,21 C668.941405,25.2838756 668.690756,29.5221145 668.462891,33.7148438 C668.235025,37.907573 667.938804,42.1458119 667.574219,46.4296875 L638.589844,47.9335938 L638.589844,56.546875 L663.746094,56.546875 L662.378906,77.7382813 L638.453125,78.421875 L638.589844,116.15625 L604,116.839844 L606.1875,21 L669.214844,21 Z" id="path-4"></path>
    </defs>
    <g id="Page-1" stroke="none" stroke-width="1" fill="none" fill-rule="evenodd">
        <g id="Outlines" transform="translate(-1.000000, -13.000000)" fill-rule="nonzero">
            <g id="My">
                <use fill="#000000" xlink:href="#path-1"></use>
                <use fill="#E18258" xlink:href="#path-1"></use>
            </g>
            <g id="Board">
                <use fill="#000000" xlink:href="#path-2"></use>
                <use fill="#E18258" xlink:href="#path-2"></use>
            </g>
            <g id="Game">
                <use fill="#000000" xlink:href="#path-3"></use>
                <use fill="#E18258" xlink:href="#path-3"></use>
            </g>
            <g id="Shelf">
                <use fill="#000000" xlink:href="#path-4"></use>
                <use fill="#E18258" xlink:href="#path-4"></use>
            </g>
        </g>
    </g>
</svg>