<svg version="1" xmlns="http://www.w3.org/2000/svg" width="889.333" height="889.333" viewBox="0 0 667.000000 667.000000"><path d="M335.9 32.4c-.2.2-3.5.6-7.4 1-3.8.3-7.9.8-9 1-1.1.2-4.5.7-7.5 1.1-3 .3-7.3 1.1-9.5 1.7-2.2.6-5.1 1.2-6.5 1.4-1.4.3-8 2-14.6 4C224.6 58.9 179 94.8 153.6 143.1c-9.1 17.2-16.7 40.4-19.1 58.2-.3 2.3-.7 5.3-1 6.7-2.2 14-2.1 40 .2 53 6.4 36.6 20 63.8 43.2 86.8 25.3 25.1 55.2 38.4 98.1 43.6 9.4 1.2 13.8 1.8 17.5 2.6 2.2.5 5.6 1.2 7.5 1.5 7.6 1.3 25 7 30.5 9.9 12.8 6.9 19.1 15.9 18 25.6-1 8.8-3.6 13.3-10.2 17.8-10.8 7.4-31.6 9.5-56.8 5.7-1.6-.3-4.8-.7-7-1-5.6-.8-23.9-4.4-30.5-6-12.3-2.9-39.4-11.9-49-16.1-22.9-10.2-33.6-15.9-51.8-28.1-7.9-5.2-14.4-9.4-14.6-9.2-.2.2-1.3 4.9-2.5 10.4-1.3 5.5-3.4 14.7-4.8 20.5-3.2 13.7-3.3 14.1-3.9 17-.3 1.4-.9 4.1-1.4 6-.5 1.9-1.1 4.6-1.4 6-.9 4.5-1.5 7.1-2.1 9-.3 1-.8 2.9-1 4.2-.2 1.3-.9 4.1-1.4 6.3-.6 2.2-2.2 9.2-3.6 15.5-2.6 11.3-4.6 19.8-8.5 36.2-5.9 25-7 30.1-7 31.3 0 1.3 13.7 9.7 38.5 23.5 11.7 6.6 50.5 26 51.9 26 .3 0 3.1 1.2 6.3 2.6 10.6 4.8 15 6.5 30.3 12 9.9 3.6 30.3 9.3 35.5 9.9 5.1.5 13.9 1.7 16.5 2.1 4.8.7 24.6 1.7 34.7 1.7 56-.1 102.6-12.9 141.2-38.7 5.8-3.9 11.9-8.3 13.5-9.6 24.6-21 41.4-42.5 54.2-69.5 4.6-9.8 12.5-31.1 13.8-37.6.3-1.3 1.6-7.7 3-14.2 1.4-6.5 2.8-13.9 3.1-16.5.3-2.6.8-5.8 1.1-7.2 1.3-5.6 1.2-38.6-.2-48-3.2-21.5-11.7-43.8-22.6-59.7-6-8.7-19-22.3-27.8-29-10.1-7.8-23.5-15.4-34.5-19.7-5.5-2.1-10.7-4.2-11.5-4.6-1.5-.7-7-2.1-8.7-2.2-.5 0-1.9-.5-3.3-1-3.3-1.2-20.1-4.5-27.5-5.3-3.3-.3-7.1-.8-8.5-1-1.4-.2-4.5-.6-7-.9-32.3-3.6-56.7-11.7-66.2-21.8-7.9-8.4-7.8-20.9.1-28.8 5-5.1 11.7-7.8 25.6-10.6 4.9-.9 33.5-1.2 40-.3 3.3.4 8.3 1 11 1.3 9.8 1 15.1 1.8 18.5 2.7 1.9.4 5.2 1.1 7.4 1.5 5.3.8 6.3 1 13.1 2.9 3.3.9 7.4 2 9 2.5 14.6 3.9 44.5 15.3 62.8 24 2.7 1.3 5.2 1.9 5.6 1.4.4-.5 2.2-7.7 4-15.9 1.8-8.3 3.4-15.7 3.6-16.5.2-.8 1.3-6 2.5-11.5s2.3-10.7 2.5-11.5c1.4-6.2 2.5-10.9 2.9-13.3.2-1.5.7-3.5 1-4.5.3-.9.8-2.9 1.1-4.5.6-3.4.6-3.4 5.5-25.7 2.2-10.2 5.9-26.8 8.1-36.9 2.2-10.1 4.2-18.8 4.5-19.2.7-1.1-8.6-6.9-20.6-13-23.8-12-60.7-24.4-90.5-30.4-9.5-1.9-28.5-5.3-33.5-5.9-6.5-.8-13.5-1.8-16-2.3-3-.6-48.5-1.5-49.1-.9z"/></svg>